<svg fill="currentColor" viewBox="0 0 32 32" xmlns="http://www.w3.org/2000/svg"><path d="M16 3C8.82 3 3 8.82 3 16s5.82 13 13 13 13-5.82 13-13S23.18 3 16 3m2.039 17.783c-.981 1.473-1.979 2.608-3.658 2.608-1.146-.187-1.617-1.008-1.369-1.845l2.16-7.154c.053-.175-.035-.362-.195-.419-.159-.056-.471.151-.741.447l-1.306 1.571c-.035-.264-.004-.7-.004-.876.981-1.473 2.593-2.635 3.686-2.635 1.039.106 1.531.937 1.35 1.85l-2.175 7.189c-.029.162.057.327.204.379.16.056.496-.151.767-.447l1.305-1.57c.035.264-.024.726-.024.902m-.291-9.344c-.826 0-1.496-.602-1.496-1.488s.67-1.487 1.496-1.487 1.496.602 1.496 1.487c0 .887-.67 1.488-1.496 1.488"/></svg>