<svg version="1.0" xmlns="http://www.w3.org/2000/svg" viewBox="0 0 216.000000 216.000000" preserveAspectRatio="xMidYMid meet">
<g transform="translate(0.000000,216.000000) scale(0.100000,-0.100000)" fill="#762075" stroke="none">
<path d="M275 1880 c-20 -22 -20 -36 -20 -632 l0 -610 26 -22 c23 -20 42 -24 135 -29 225 -12 438 -93 567 -215 l37 -36 0 615 0 615 -28 45 c-104 162 -331 274 -582 286 -110 5 -116 5 -135 -17z"/>
<path d="M1647 1890 c-202 -34 -394 -146 -479 -279 l-28 -45 0 -614 0 -614 38 34 c140 126 339 202 566 215 93 5 112 9 135 29 l26 22 0 610 c0 719 13 653 -124 651 -47 -1 -108 -5 -134 -9z"/>
<path d="M44 1628 c-12 -5 -27 -21 -33 -34 -8 -18 -11 -213 -11 -653 0 -620 0 -629 21 -655 25 -32 44 -33 197 -4 98 19 153 22 337 23 149 0 239 -4 278 -13 32 -8 61 -12 63 -9 3 3 -29 27 -71 55 -120 79 -308 132 -473 132 -100 1 -188 62 -211 147 -7 24 -11 218 -11 531 l0 492 -32 -1 c-18 0 -43 -5 -54 -11z"/>
<path d="M2030 1148 c0 -313 -4 -507 -11 -531 -23 -85 -111 -146 -211 -147 -165 0 -353 -53 -473 -132 -42 -28 -74 -52 -71 -55 2 -3 31 1 63 9 39 9 129 13 278 13 184 -1 239 -4 337 -23 153 -29 172 -28 197 4 21 26 21 35 21 655 0 439 -3 635 -11 652 -13 29 -48 47 -89 47 l-30 0 0 -492z"/>
</g>
</svg>
