<svg fill="#fff" viewBox="-7.5 0 32 32" xmlns="http://www.w3.org/2000/svg"><path d="m16.52 12.72-4.84-4.84c-.16-.16-.44-.28-.68-.24s-.48.16-.6.36l-3.52 5.16-3.72.84c-.28.08-.52.28-.64.6-.08.28 0 .6.2.84l2.52 2.52-5 5c-.32.32-.32.84 0 1.2q.24.24.6.24c.36 0 .44-.08.6-.24l5.04-5.04L9 21.64q.24.24.6.24c.08 0 .16 0 .24-.04.28-.08.52-.32.6-.64l.84-3.72L16.44 14q.3-.24.36-.6c-.04-.28-.08-.52-.28-.68m-6.44 3.6c-.16.12-.28.32-.36.52l-.6 2.56L5 15.28l2.56-.56c.2-.04.4-.16.52-.36L11.2 9.8l3.4 3.4z"/></svg>