<svg fill="currentColor" xmlns="http://www.w3.org/2000/svg" viewBox="0 0 359.211 359.211" xml:space="preserve"><path d="m352.203 286.132-78.933-78.933c-3.578-3.578-8.35-5.548-13.436-5.548a19.1 19.1 0 0 0-6.21 1.05l-18.929-18.929c-2.825-2.826-6.593-4.382-10.607-4.382s-7.781 1.556-10.606 4.381l-4.978 4.978-8.904-8.904 38.965-39.17c9.105 3.949 19.001 5.837 29.224 5.837h.007c19.618 0 38.064-7.437 51.939-21.312 18.59-18.588 25.842-45.811 18.926-71.207-.859-3.159-3.825-5.401-7.053-5.401-1.389 0-3.453.435-5.39 2.372-.265.262-26.512 26.322-35.186 34.996-.955.955-2.531 1.104-3.45 1.104a6 6 0 0 1-1.022-.069v.002l-.593-.068c-10.782-.99-23.716-2.984-26.98-4.489-1.556-3.289-3.427-16.533-4.427-27.489v-.147l-.234-.308c-.058-.485-.31-2.958 1.863-5.131 9.028-9.029 33.847-34.072 34.083-34.311 2.1-2.099 2.9-4.739 2.232-7.245-.801-3.004-3.355-4.686-5.469-5.257A73.8 73.8 0 0 0 267.788 0c-19.62 0-38.068 7.64-51.941 21.512-21.901 21.901-27.036 54.296-15.446 81.141l-38.996 38.995-66.723-66.721c-.041-.041-.086-.075-.128-.115a28.2 28.2 0 0 0 .791-7.947c-.329-7.73-3.723-15.2-9.558-21.034L62.041 22.083c-.519-.519-3.318-3.109-7.465-3.109-1.926 0-4.803.583-7.58 3.359L20.971 48.359c-3.021 3.021-4.098 6.903-2.954 10.652.767 2.512 2.258 4.139 2.697 4.578l23.658 23.658c6.179 6.179 14.084 9.582 22.259 9.582h.001a28 28 0 0 0 6.721-.818c.041.042.075.087.116.128l66.722 66.722-31.692 31.692a27.2 27.2 0 0 0-3.726 4.654c-9.281-4.133-19.404-6.327-29.869-6.327-19.623 0-38.071 7.642-51.946 21.517-18.589 18.589-25.841 45.914-18.926 71.31.859 3.158 3.825 5.451 7.052 5.451h.001c1.389 0 3.453-.41 5.39-2.347.265-.262 26.513-26.309 35.187-34.983.955-.955 2.639-1.097 3.557-1.097.66 0 1.125.072 1.132.072h-.001l.487.069c10.779.988 23.813 2.982 27.078 4.489 1.556 3.29 3.575 16.534 4.554 27.49l.07.501c.006.026.362 2.771-1.952 5.086-9.029 9.029-33.888 34.072-34.124 34.311-2.1 2.099-2.92 4.74-2.252 7.245.802 3.004 3.346 4.685 5.459 5.256a73.7 73.7 0 0 0 19.243 2.553c19.621 0 38.066-7.64 51.938-21.512 13.876-13.875 21.518-32.324 21.517-51.947 0-10.465-2.193-20.586-6.326-29.868a27 27 0 0 0 4.654-3.726l31.693-31.693 8.904 8.904-4.979 4.979c-2.826 2.825-4.382 6.592-4.382 10.606s1.556 7.782 4.382 10.607l18.929 18.929a19.1 19.1 0 0 0-1.05 6.209c0 5.086 1.971 9.857 5.549 13.435l78.934 78.934c3.577 3.577 8.349 5.548 13.435 5.548s9.857-1.971 13.435-5.548L352.205 313c3.578-3.578 5.549-8.349 5.549-13.435-.002-5.083-1.972-9.855-5.551-13.433"/></svg>